# xmcd CD database file
#
# Track frame offsets:
#	183
#	8570
#	21048
#	31498
#	43658
#	53523
#	62650
#	73730
#	84170
#	96510
#	104395
#	114165
#	124330
#	134463
#
# Disc length: 1950 seconds
#
# Revision: 0
# Processed by: cddbd v1.5PL3 Copyright (c) Steve Scherf et al.
# Submitted via: CDex 1.51
#
DISCID=b3079c0e
DTITLE=Johnny Cash - Country Boy
DYEAR=1990
DGENRE=Country
TTITLE0=Country Boy
TTITLE1=Folsom Prison Blues
TTITLE2=Straight A´s In Love
TTITLE3=You´re The Nearest Thing To Heaven
TTITLE4=Ballad Of A Teenage Queen
TTITLE5=Two Timin´ Woman
TTITLE6=I Just Thought You´d Like To Know
TTITLE7=There You Go
TTITLE8=Next In Line
TTITLE9=Hey Good Lookin´
TTITLE10=Just About Time
TTITLE11=Goodbye Little Darling
TTITLE12=I Could Never Be Ashamed Of You
TTITLE13=Port Of Lonely Hearts
EXTD=YEAR: 1990
EXTT0=
EXTT1=
EXTT2=
EXTT3=
EXTT4=
EXTT5=
EXTT6=
EXTT7=
EXTT8=
EXTT9=
EXTT10=
EXTT11=
EXTT12=
EXTT13=
PLAYORDER=
